<svg xmlns="http://www.w3.org/2000/svg" xmlns:xlink="http://www.w3.org/1999/xlink" version="1.1" id="Layer_1" x="0px" y="0px" viewBox="-3 -3 544 636" style="enable-background:new 0 0 538.7 630;" xml:space="preserve"><g id="deeditor_bgCarrier" stroke-width="0">
  <rect id="dee_c_e" x="-3" y="-3" width="544" height="636" rx="38.4" fill="#20c499" strokewidth="0"/>
</g>
<path d="M520.5,393.3c-0.1-10.9-0.1-21.9-0.2-32.8c-0.1-5.7-0.3-11.4-0.7-17.1c-0.1-1.7-0.8-3.6-1.7-5c-1.1-1.7-2.7-3.2-4.2-4.6  c-4.7-4.4-9.4-8.8-14.1-13.1c-3.5-3.2-6.9-6.6-10.7-9.6c-5.6-4.4-11.5-8.5-17.3-12.6c-1.4-1-1.9-2-2.1-3.7c-0.9-8.8-1.9-17.6-3-26.4  c-0.4-3.2-1.3-6.4-1.6-9.6c-0.6-7.2-3.9-13.1-8.7-18.2c-3.4-3.5-7.2-6.6-10.8-9.9c-12-10.8-23.9-21.5-35.9-32.3  c-1.1-1-2.1-2-3.2-2.9c-1.1-0.9-1.3-1.9-1.4-3.3c-0.1-4.4-0.4-8.8-0.6-13.3c-0.1-1.7,0.2-2.2,2-3.1c1.9-0.9,4-1.5,5.6-2.8  c4.2-3.4,8.7-6.6,12.1-10.8c0.7-0.8,1.4-1.7,2-2.6c3.1-4.7,5.2-9.9,7.1-15.2c1.1-3.2,0.9-6.4-0.5-9.5c-1.9-3.9-3.7-7.9-6.7-11.1  c-3.6-3.8-7.1-7.8-11.2-11c-9.2-7.2-18.7-14.3-28.3-21c-17.3-12-35-23.4-52.3-35.5c-19.9-14-40.2-27.4-61.7-38.8  c-2.2-1.2-4.5-2.3-6.9-3.2c-1.8-0.7-3.7,0.1-4.8,1.9c-1.4,2.3-1.5,4.8,0,6.2c1.1,1.1,2.4,2.2,3.6,3.3c-3.1,3.8-4.5,8.1-5.4,12.7  c-0.7,3.9-2.3,7.4-4.7,10.6c-2,2.6-4.2,5-6.2,7.5c-1.4,1.7-2.9,3.5-4.1,5.3c-2.2,3.2-4.1,6.6-6.3,9.8c-1.5,2.1-3.3,4-5,6.1  c-2.1-1.3-3.9-2.5-5.8-3.5c-3.7-1.8-7.2-4.3-11.5-4.6c-3.3-0.2-4.7,0.8-5.1,4.1c-0.1,0.7-0.2,1.5,0,2.2c0.7,2.1,0,3.9-0.6,5.8  c-0.6,1.9-1.2,3.8-1.7,5.7c-1.9,6.9-5.1,13.1-9.7,18.6c-6.7,8.1-12.6,16.8-17.6,26.1c-0.1,0.1-0.3,0.2-0.5,0.4  c-1.2-0.1-2.4-0.3-3.7-0.2c-5.3,0.5-7.6,3.2-7.1,8.1c0.1,0.9,0.4,1.8,0.9,2.5c1.4,2.4,1.1,4.7-0.3,6.9c-0.6,0.9-1.3,1.7-1.9,2.6  c-1.6,2.5-3.4,4.9-4,7.9c-0.5,2.4-1.1,4.7-1.6,7.1c-0.2,1.2-0.8,1.9-1.9,2.4c-1.6,0.8-3.2,1.7-4.7,2.7c-1.4,1-2.7,2.1-3.8,3.4  c-2.3,2.8-1.4,7.4,1.7,8.9c4.3,2.1,8.3,4.7,12.5,7c5.2,2.8,10.4,5.5,15.8,8.3c-9.1,8-17.9,16.1-27,23.8  c-15.5,13.1-30.4,26.8-44.4,41.4c-0.4,0.4-0.8,0.8-0.9,1.3c-0.4,2.9-0.8,5.9-1.1,8.8c-0.2,2.5-0.1,5.1-0.1,7.6c0,1.3-0.4,2.2-1.3,3  c-11,9.9-20.9,20.8-30.6,31.8c-2.4,2.7-4.4,5.8-5.8,9.1c-3.7,8.4-7.4,16.7-10.7,25.2c-5.2,13.5-10.5,26.9-16.1,40.3  c-4.9,11.6-9.7,23.3-13.5,35.5c-3.4,11-7.3,22-10.8,33c-2.4,7.4,1.2,15.1,8.4,18.1c10.1,4.1,20.5,7.2,31.2,9.1  c5.2,0.9,10,0.1,14.4-3c1.9-1.4,3.4-2.9,4-5.2c0.4-1.6,1-3.1,1.5-4.6c7.2-22.7,14-45.6,22.6-67.8c2.4-6.2,4.5-12.6,6.8-18.9  c0.3-0.8,0.7-1.6,1-2.3c0.4,2.7,0.5,5.3,0.4,7.8c-0.3,7.5-0.7,14.9-0.9,22.4c-0.3,9.4-0.3,18.9-0.5,28.3c-0.1,7.6-0.3,15.1-0.5,22.7  c-0.1,4.5-0.1,9-0.3,13.5c-0.1,2.9-0.3,5.8-0.5,8.6c-0.1,1.8,0.3,3.4,1.4,4.8c1.5,1.9,3.6,1.7,4.8-0.5c0.6-1,1.1-2,1.7-2.9  c4.6,1.1,8.9,2.1,13.2,3c1.8,0.4,3.8,1,5.2-0.4c1.6-1.5,3.3-1.6,5.2-1.6c2.9,0,5.8-0.1,8.7-0.2c1.5-0.1,2.9,0.2,4,1.3  c1,1,2.3,1.4,3.7,1.1c2.6-0.5,5.3-1,7.9-1.7c1.1-0.3,1.8-0.3,2.7,0.4c3.4,2.4,6.2,1.6,8-2.2c0.6-1.3,1.2-2.6,1.8-3.8  c3.2,0.6,4.5-0.1,5.3-3.1c0.4-1.4,0.5-3,0.7-4.3c3.3-0.6,6.6-1.1,10.2-1.7c0.8,1.7,2.6,2,4.6,2c2.8,0,5.6,0,8.4-0.1  c2.9-0.1,5.5-0.9,5.7-4.8c3.7,0.2,7.2,0.3,10.7,0.5c0.3,0.8,0.5,1.3,0.6,1.8c1.1,2.9,2.4,3.8,5.5,3.6c1.3-0.1,2.7-0.4,4-0.5  c2.6-0.3,4.6-1.5,5.8-3.9c0.4-0.8,1-1.5,1.5-2.2c3.3,0.1,6.1,1.7,9.2,2.7c0,1.5,0.1,2.9,0,4.3c-0.2,2.5-0.1,2.9,2.3,3.8  c2.9,1,5.8,1.8,8.7,2.8c5.4,1.8,11,2.4,16.6,1.9c4.5-0.5,8.9-1.4,13.4-2.2c6-1.1,11.4-3.4,15.9-7.5c1.8,0.3,3.5,0.9,5.3,1  c4.9,0.3,9.7,0.5,14.6,0.6c2.5,0.1,4.8,0.3,6.9,1.9c1.2,0.9,2.7,1.4,4.2,1.9c9.7,3,19.3,1.5,28.8-1.2c2.3-0.7,4.4-1.3,7-1  c4.8,0.4,9.6,0.2,14.4,0.1c5.6-0.2,11.2-0.6,16.8-0.8c5.5-0.2,11-0.7,16.2-2.8c0.2-0.1,0.5,0,0.7,0c0.4,0.7,0.8,1.3,1.1,1.9  c1.4,2.8,3.7,4.3,6.6,5.2c3.1,1,6.1,1.4,9.3,1.2c3.7-0.2,7.4-0.1,11.1-0.3c7.5-0.3,14.7-1.7,20.5-6.9c0.9-0.8,1.6-0.9,2.6-0.8  c8.1,0.8,16.2,1.7,24.3,1c6.1-0.5,12.2-1.3,18.1-2.9c3.8-1,5.9-3.4,6.2-7.2c0.6-6.7,1.7-13.5,1.7-20.3  C521.1,431.5,520.6,412.4,520.5,393.3z M108.7,322.7c0,0.4-0.2,0.9-0.5,1.2c-2.5,3.4-5.1,6.7-7.8,10.3c-1.6-1.4-3-2.5-4.5-3.8  c4.1-5.1,8.2-10.1,12.2-15.1c0.2,0,0.4,0.1,0.6,0.1C108.7,317.8,108.7,320.3,108.7,322.7z M109.1,329.8c0,3.5,0,6.3,0,9.7  c-1.8-1-3.2-1.9-4.7-2.8C105.3,334,107.2,332.3,109.1,329.8z M85.4,318.3c7.2-8.3,14.5-16.6,21.7-24.9c0.3-0.3,0.4-0.8,0.5-1.3  c0.2,0.2,0.5,0.3,0.7,0.5c0.1,1.7,0.4,3.3,0.3,5c-0.1,0.9-0.6,1.8-1.2,2.6c-4.3,5.1-8.7,10.2-13,15.3c-2.3,2.7-4.5,5.6-7,8.6  c-1.1-1-2.2-2-3.6-3.2C84.5,319.9,84.8,319,85.4,318.3z M66.3,483.2c-2.1,0.3-4.3,0.5-6.4,0.2c-4.9-0.7-9.7-1.9-14.6-2.8  c-4.4-0.8-8.4-2.7-12.4-4.6c-2.5-1.2-5-2.5-7.4-3.9c-0.8-0.4-1.5-1.3-1.8-2.2c-0.2-0.8,0-2,0.4-2.7c0.6-1,1.6-0.3,2.5,0  c5.7,2.3,11.3,4.7,17.1,6.8c7.4,2.7,15,4.5,22.8,5.7c1.2,0.2,2.6-0.5,3.5,1C69.1,482.1,67.9,483,66.3,483.2z M74.7,468.4  c-16.2-3.3-31.8-7.7-45.7-17.6c2.1-6.6,4.2-13.2,6.4-20.1c13.9,9.4,29.4,14.4,44.9,19.9C78.4,456.4,76.6,462.2,74.7,468.4z   M86,431.9c-15.8-4-29.4-12-43.2-20.4c2.4-6.1,4.9-12.2,7.5-18.8c12.7,9.8,27.6,13.8,41.8,20.2C90,419.3,88,425.7,86,431.9z   M104.2,378.2c-1.9,5.7-3.9,11.4-5.9,17.1c-0.2,0.5-0.6,0.9-1,1.4c-14.2-5.4-26.8-13.1-39.6-20.6c3-7.5,5.8-14.7,8.8-22.3  c0.9,0.6,1.6,1,2.3,1.5c10.5,7.8,21.6,14.4,33.6,19.5C104.2,375.6,104.8,376.4,104.2,378.2z M109.8,354.7c-0.1,0.9-0.1,1.9-0.2,3.3  c-1.1-0.5-1.9-0.6-2.5-1c-6.4-4.1-12.8-8.1-19.1-12.3c-3.4-2.2-6.6-4.7-9.9-7.1c-0.9-0.7-1.9-1.4-2.8-2.2c-0.8-0.6-1.2-1.5-0.7-2.4  c0.8-1.7,1.2-3.6,3.1-5c0.6,0.4,1.2,0.6,1.7,1c5.9,4.3,11.9,8.6,17.8,12.8c2.8,2,5.6,4.1,8.6,5.7C108.9,349,110,351.4,109.8,354.7z   M460.3,264.5c1.9,23.9,2.8,47.8,2,71.8c-0.1,3.4-0.1,6.9-0.1,10.3c0,0.9,0,1.8,0,2.8c-12.2,0.5-24.2,1-36.3,1.5  c-0.6-29.6-1.3-59-1.9-88.8c3.8-0.2,7.2-0.4,10.6-0.4c7.5-0.1,15-0.1,22.5-0.1C459.6,261.6,460.1,262,460.3,264.5z M426.2,365  c11.9-0.6,23.7-1.3,35.8-1.9c0,1.5,0,2.4,0,3.7c-11.9,1.1-23.7,1.9-35.7,2.6c-0.1-0.9-0.2-1.6-0.3-2.3  C426.1,366.5,426.2,365.9,426.2,365z M426.1,360.2c0-0.5-0.1-1-0.1-1.5c-0.1-1.3,0.5-2,1.9-2.1c2-0.1,4-0.3,5.9-0.4  c0.4,0,0.7,0,1.1,0c8.9-0.2,17.9-0.5,27.2-0.7c0,1.3,0,2.4,0,3.4C459.2,359.5,430.4,360.7,426.1,360.2z M458,253.9  c0.1,0.5,0.3,1,0.5,1.7c-11.3,0.6-22.3,1.3-33.2,1.9c-1.4-3-0.4-5.5,2.7-6.1c3.3-0.7,6.8-1.1,10.2-1.2c5.1,0,10.3,0.5,15.4,0.5  C456.1,250.7,457.4,251.7,458,253.9z M430.5,244.6c-3.7-4-7.6-7.8-11.4-11.6c-2.7-2.8-5.5-5.5-8.2-8.3c-3.1-3.2-6.2-6.4-9.3-9.5  c-1-1-0.8-1.9,0.2-3.2c14,10.3,25.7,22.8,38.4,34.3C436.7,246.7,433.4,247.7,430.5,244.6z M404.4,203.3  c15.9,14.1,31.8,28.3,47.6,42.4c-0.1,0.2-0.2,0.4-0.2,0.7c-1.8,0-3.7,0.1-5.5,0c-0.5,0-1-0.4-1.4-0.7c-3-2.6-5.9-5.3-8.9-7.9  c-6.5-6-13-12.1-19.6-17.9c-4.4-3.9-9-7.5-13.9-11.4c0.3-1.3,0.7-3.1,1.1-4.8C403.9,203.5,404.2,203.4,404.4,203.3z M413.7,142  c-16.1-11.7-31.9-23.4-47.9-34.8c-16.1-11.5-32.3-22.9-48.5-34.3c-16.1-11.4-32.7-22-48.5-33.7c0.2-0.2,0.3-0.3,0.5-0.5  c0.8,0.5,1.7,1,2.5,1.5c19.9,13.3,39.8,26.7,59.8,39.9c19.8,13.1,39.7,25.9,59.4,39.1c8,5.4,15.5,11.5,23.3,17.3  c0.6,0.5,1.2,1.1,1.9,1.7C415.2,139.5,414.4,140.8,413.7,142z M267.7,28.9c6.6,4.1,13.1,8,19.5,12.1c7.2,4.6,14.3,9.1,21.4,13.8  c14.2,9.4,28.5,18.6,43.4,26.6c15.4,8.3,29.3,18.9,43.3,29.3c6.1,4.5,11.6,9.7,17.4,14.7c1.8,1.6,3,3.6,3.7,5.9  c0.3,0.8,0.4,1.7,0.7,3c-0.9-0.5-1.3-0.6-1.7-0.9c-10-8.4-20.8-15.7-31.6-22.9c-30.3-20.1-60.6-40.2-90.9-60.3  c-7.6-5-15.3-10-22.9-15c-1.5-1-3.1-1.8-4.8-2.9C266.2,31.1,267,30,267.7,28.9z M262.5,38.9c1.2,0.5,2.2,0.7,2.8,1.2  c8.6,7.4,18.3,13.3,27.6,19.7c32.7,22.3,65,45.3,96.9,68.7c5.2,3.8,10.4,7.6,15.5,11.4c0.6,0.4,1.1,0.9,1.5,1.8  c-0.9-0.5-1.7-0.9-2.6-1.4c-8.9-5.4-17.7-11-26.6-16.3c-35-20.8-70.1-41.6-105.2-62.4c-4.9-2.9-10-5.4-15.3-8.2  C259.8,49,262,44.5,262.5,38.9z M256.1,56.9c0.7,0.3,1.8,0.6,2.8,1.2c7.8,4.2,15.6,8.4,23.3,12.8c38.3,22.3,76.3,45,114,68.2  c4.5,2.8,9.2,5.4,14.1,8.3c-1.3,1.9-2.4,3.7-3.7,5.6c-0.6-0.3-1.1-0.5-1.5-0.8c-39.2-24.7-79.8-46.8-120.1-69.6  c-9.1-5.2-18.2-10.3-27.3-15.6c-2.1-1.2-4-2.7-6-4.2c-0.4-0.3-0.6-0.8-0.9-1.2C252.5,60.1,254.1,58.7,256.1,56.9z M248.2,64.2  c5.5,4.7,11.7,8,17.8,11.4c29.3,16.6,58.8,33,88,49.8c16.2,9.3,32.1,19.2,48.2,28.8c0.6,0.4,1.2,0.8,2.1,1.4c-1.3,1-2.4,1.8-3.5,2.6  c0.1,0.2,0.2,0.5,0.3,0.7c-0.8-0.5-1.7-0.9-2.5-1.4c-30-17.3-59.8-34.8-90.1-51.7c-19.1-10.6-38.8-20.2-58.2-30.3  c-2.1-1.1-4.1-2.3-6.3-3.5C245.4,69.4,246.8,66.9,248.2,64.2z M242,75c52.7,25.3,103,54.7,153.3,84.2c-0.1,0.2-0.2,0.3-0.3,0.5  c-3.3-1.4-6.6-2.8-9.9-4.1c-23.4-9.5-45.6-21.5-68.3-32.4c-21.3-10.2-41.7-22-62.4-33.3c-5.7-3.1-11.5-6.1-17.3-9.3  C238.3,78.2,240.5,76.6,242,75z M416.9,287.5c0,0.7,0,1.4,0,2.2c0,0.1-0.2,0.3-0.2,0.4c-5.5-5.3-10.9-10.7-16.6-15.7  c-5.7-5-11.8-9.5-17.8-14.4c5.1-8.4,1.7-15.9-3-23.4c3.7-2.1,7.2-4.1,11-6.2c2.5,2.1,5.2,4.2,7.8,6.5c5.3,4.7,10.5,9.7,15.9,14.3  c2.8,2.4,3.5,5.6,3.3,8.7C416.3,269.1,416.9,278.3,416.9,287.5z M395.8,287.5c1.2,1.8,2.5,3.6,3.8,5.2c1.4,1.7,2.9,3.2,4.4,4.8  c-2.2,1-2.3,1-3.6-0.5c-1.3-1.4-2.4-2.9-3.7-4.3c-6.2-6.9-12.4-13.9-18.7-20.7c-1.1-1.2-1.2-2.1-0.6-3.4c0.7-1.3,1.4-2.5,2.2-3.8  c0.9,0.4,1.6,0.7,2.3,1.1c1.1,0.6,2.3,1.2,3.2,2c8.8,8,18.4,15.2,25.5,24.9c1.2,1.7,2.5,3.2,3.9,4.9c-2.1,0.5-3.4-0.1-4.8-1.5  c-3.4-3.5-6.9-6.8-10.4-10.2c-0.3-0.3-0.7-0.8-1.1-0.8c-0.7-0.1-1.7-0.2-2.3,0.1C395.2,285.8,395.2,286.8,395.8,287.5z M266.2,135.7  c0.5,0.2,1.1,0.4,1.5,0.6c31.3,15.5,62.7,30.9,94,46.4c6.5,3.2,12.9,6.9,19.3,10.4c0.6,0.3,1.1,0.8,2,1.5c-1.8,3.9-3.5,7.7-5.3,11.4  c-17.9-11.7-37.3-20.3-56-30c-20.8-10.8-41.7-21.2-62.5-31.9c-0.9-0.4-1.7-0.9-3-1.6C259.7,140,262.9,137.9,266.2,135.7z   M252.8,140.4c-1.6,0.1-3.4-1.5-5.1-2.3c-1.6-0.8-3.2-1.7-5.1-2.6c2.9-2.4,5.6-4.7,8.5-7.1c3.8,1.8,7.6,3.6,11.8,5.6  c-1.9,1.3-3.5,2.5-5.1,3.5C256.2,138.6,254.6,140.3,252.8,140.4z M383.2,291.4c-2-2.4-3.9-4.7-5.9-7.1c-0.4-0.5-1-1.2-1-1.8  c0-2.1,0.2-4.2,0.4-6.9c7.5,7.2,13.7,14.7,20,22.2c-1.2,0.4-6.4,0.8-7.2,0.4c-0.6-0.3-1.2-0.8-1.7-1.3  C386.3,295.1,384.8,293.2,383.2,291.4z M384.2,298.3c-2.8,0-5.4,0-8.4,0c-0.3-3.2,0.1-6.4,0.3-9.8  C378,289.7,382.8,295.5,384.2,298.3z M212.6,89.8c1.1,0.7,2.2,1.5,3.4,2.2c11.4,6.9,22.8,13.6,34.1,20.6  c9.9,6.2,20.3,11.4,30.9,16.2c9.1,4.1,18.1,8.7,27.1,13.1c0.7,0.4,1.5,0.8,2.2,0.9c0.5,0,1.2-0.4,1.5-0.9c0.2-0.3,0-1.2-0.3-1.4  c-0.6-0.6-1.4-1.1-2.2-1.5c-9.5-4.6-19-9.3-28.6-13.7c-9.4-4.3-18.6-8.9-27.3-14.3c-11.7-7.2-23.5-14.2-35.3-21.3  c-1.1-0.6-2.1-1.4-3.2-2.2c0.2-0.9,0.4-1.8,0.7-3c59.2,28.5,117.2,58.2,173.9,91.5c-0.6,2.2-1.2,4.6-1.9,7.1c-4-2-7.8-3.9-11.5-5.8  c-3.9-2.1-7.7-4.4-11.6-6.4c-6.4-3.3-13-6.4-19.4-9.6c-0.9-0.4-1.9-0.7-2.8-0.9c-0.5-0.1-1.1,0.1-1.8,0.2c0.2,1.6,1.5,1.8,2.3,2.3  c4.8,2.6,9.6,5.1,14.4,7.6c9,4.8,18,9.6,27,14.4c2.2,1.2,2.1,1.2,1.2,3.4c-58.5-30.1-117-60.2-176.4-88.4  C210.3,96.1,211.4,93,212.6,89.8z M204.7,104.9c14.4,7.3,28.6,14.6,43.1,22c-2.6,2.5-5.6,4.5-8.5,6.9c-13.6-7.5-27.6-13.9-42.3-19.2  C199.9,111.1,202.4,107.9,204.7,104.9z M166.7,164.8c1.9,0.7,3.5,1.2,5,1.9c12,5.5,23.9,11,36,16.4c6.3,2.8,12.6,5.4,18.9,8.1  c3.3,1.4,6.5,3.1,9.8,4.6c0.4,0.2,0.8,0.5,1.2,0.6c0.9,0.3,1.8,0.4,2.3-0.6c0.4-0.9,0-1.6-0.8-2.1c-1.3-0.8-2.6-1.6-4-2.3  c-2.2-1.1-4.4-2-6.7-3c-8.5-3.7-17.1-7.4-25.6-11.2c-11.4-5-22.8-10.1-34.1-15.2c-0.2-0.1-0.5-0.3-0.9-0.6c0.4-0.8,0.7-1.6,1.2-2.3  c1.2-1.7,2.5-2,4.5-1.1c8.2,3.8,16.4,7.6,24.5,11.6c15.3,7.5,30.6,15.2,45.9,22.7c4.4,2.1,9,3.8,13.5,5.7c0.7,0.3,1.5,0.6,2.2,0.9  c-1,3.1-2,6.1-3,9.1c-0.6-0.2-1-0.2-1.4-0.4c-12.4-6-25.4-10.4-38.2-15.2c-7.5-2.8-14.9-6.1-22.3-9.2c-7.1-3-14.1-6-21.1-9.1  c-2.5-1.1-5-2.5-7.7-3.9C166.2,168.3,166.4,166.7,166.7,164.8z M190.3,204.6c7.9,3.3,15.9,6.5,24.2,10c-3.3,4.7-6.3,9.4-10.5,13.3  c-8.8-6.9-19.3-7.9-30.3-8.3C179.4,214.5,184.8,209.6,190.3,204.6z M241.8,234.8c2.3,0.8,4.5,1.7,7,2.7c-2.1,4.5-4.2,8.8-6.3,13.3  c-6-3.2-11.9-6.2-18.4-7.7c-6.6-1.5-13.2-1.3-20.2,0.3c2.3-4.2,4.5-7.5,9.2-8.9C222.7,231.5,232.2,231.7,241.8,234.8z M216.9,224.2  c1.3-2.1,2.7-4.3,4.3-6.9c5.7,2.1,11.4,4.2,17,6.3c0,0.2-0.1,0.4-0.1,0.6C231.1,224.2,224.1,224.2,216.9,224.2z M275.4,285.2  c1.2,0.3,2-0.5,2.3-2.7c0.5-4.4,0.8-8.8,1.2-13.2c0.6-6.3,1.3-12.6,1.9-18.9c0.2-1.6,0.2-3.2,0.4-4.8c0.1-1,0.4-1.9,0.6-3  c0.8,0.2,1.4,0.3,2,0.5c3.3,1.4,6.6,2.9,10,4.3c1.2,0.5,1.9,1.2,2,2.6c0.7,7.2,1.5,14.4,2.2,21.6c0.4,4.1,0.6,8.1,0.8,12.2  c0.1,0.9,0,1.8,0,3c-2.9,0.3-5.8,0.2-8.6,0c-1.5-0.1-1.4-1.4-1.4-2.5c0.1-4.5,0.2-9,0.3-13.6c0-1.1,0.1-2.2,0.1-3.3  c0-0.6,0-1.3-0.3-1.9c-0.3-0.5-0.9-1-1.4-1c-0.5,0-1.2,0.5-1.4,1c-0.3,0.7-0.3,1.6-0.4,2.4c-0.4,5.1-0.8,10.3-1.2,15.4  c-0.1,1.1-0.3,2.1-0.5,3.2c-5.1,0-10,0-15.4,0c2-15.8,4.4-31.3,6.7-46.9c0.6,0.2,0.9,0.2,1.2,0.4c0.7,0.3,1.3,0.6,2.1,1  c-0.1,0.9-0.1,1.8-0.2,2.6c-0.7,6.2-1.4,12.4-2.1,18.6c-0.7,6.6-1.3,13.3-2,20C274.1,284,274.4,284.9,275.4,285.2z M299.2,296.4  c0.3,8.6,0.6,17.1,1,25.9c-1.9,0.2-3.7,0.4-5.6,0.5c-12,0.9-24,0.6-36,0.6c-3.6,0-7.2,0-11.2,0c-0.2-8.7-0.4-17.4-0.7-26.6  c5.4-0.4,10.7-1.2,16-0.9c3.2,0.2,6.3,0.5,9.5,0.8c5.7,0.6,11.4-0.1,17-0.6C292.5,295.8,295.7,295.6,299.2,296.4z M261.9,286  c-5,0-9.8,0-14.7,0c4.4-17.6,12.1-33.9,18-51c0.9,0.3,1.6,0.6,2.4,0.9c0.7,0.3,1.5,0.7,2.4,1.1C267.2,253.3,264.6,269.7,261.9,286z   M239.9,286c4.5-18.5,9.7-36.7,17.3-54.5c1.4,0.6,2.6,1.1,3.8,1.6C258.4,243.1,242.3,283.9,239.9,286z M213,268.9  c-4.1-0.5-8.2-0.9-12.4-1.1c-4.4-0.2-8.6,0.6-12.5,2.6c-1,0.5-1.9,1-3.4,1.7c0.4-0.9,0.6-1.4,0.9-1.9c3.1-4.7,6.4-9.4,9.4-14.2  c1.1-1.7,2.5-2.6,4.3-2.9c2.9-0.4,5.7-0.8,8.6-1c4.4-0.4,8.7,0,12.9,1.3c3.2,1,6.4,1.9,9.6,2.9c2.8,0.9,5.4,2.3,8,4.1  c-2.1,5.6-4.2,11.2-6.3,16.8C226.2,272.6,220,269.7,213,268.9z M214.5,296.3c1.4,8.1,3,16.2,4.3,24.3c1.4,8.6,2.7,17.2,3.8,25.8  c1.1,8.9,2,17.9,2.9,26.9c0.9,9.7,1.7,19.4,2.6,29.1c0.9,8.9,1.9,17.7,2.9,26.5c-2.2,0.1-4.3,0.3-6.5,0.4c-0.1-3.4-0.2-6.7-0.3-10  c-0.2-6.5-0.3-12.9-0.5-19.4c-0.2-6.1-0.3-12.2-0.6-18.4c-0.3-5.7-0.5-11.3-1-17c-0.7-8.2-1.5-16.3-2.4-24.5c-0.9-7.6-2-15.2-3-22.7  c-0.9-6.5-1.8-13-2.7-19.5c-0.1-0.4-0.1-0.9-0.1-1.3C214.1,296.4,214.3,296.4,214.5,296.3z M151.9,434.1c-0.2,3.7-0.6,7.4-0.8,11.1  c-0.3,7.7-0.6,15.5-0.8,23.2c-0.1,4.6-0.3,9.2-0.2,13.7c0,1.5,0.5,3,0.8,4.5c0.1,0.5,0.2,1,0.3,1.8c-5.9,0.2-11.5-0.2-17.3-1  c-0.2-1.5-0.6-3-0.6-4.5c-0.1-5.7-0.1-11.3-0.3-17c-0.3-8.1-0.7-16.2-1.1-24.3c0-0.4-0.1-0.9-0.2-1.3c-0.3-1.1-1.1-1.5-2-1.4  c-1.1,0.1-1.5,1-1.4,2c0.1,1.2,0.4,2.3,0.5,3.4c0.3,6.1,0.7,12.2,1,18.2c0.2,3.6,0.3,7.2,0.3,10.8c0,4.8,0,9.5,0,14.6  c-4.6,0.5-9.3-1.5-14.3-1.1c0-2.4,0-4.3,0-6.2c0.1-7.9,0.3-15.8,0.4-23.8c0.1-5.1,0.2-10.3,0.3-15.4c0-4.9,0-9.9,0-14.8  c0.1-7.2,0.4-14.4,0.5-21.6c0.1-4.3,0.1-8.6,0.1-12.9c0-4.7,0-9.3,0-14c0-5.3-0.1-10.6-0.2-15.9c-0.1-8-0.2-16-0.4-24  c-0.1-4.2-0.6-8.4-0.6-12.7c-0.1-7.2,0-14.4,0.1-21.7c0.1-3.2,0.4-6.4,0.8-9.7c0.1-1.1,0.5-2.1,0.8-3.2c0.2,0,0.4,0,0.6,0  c0.2,0.5,0.6,0.9,0.6,1.4c0.2,4.9,0.2,9.7,0.4,14.6c0.1,4.3,0.3,8.7,0.4,13c0,1.1,0,2.1,0.2,3.2c0.1,0.8,0.1,1.7,0.5,2.3  c0.2,0.4,1.1,0.8,1.6,0.7c0.4-0.1,1-0.7,1.1-1.2c0.2-0.8,0.2-1.6,0.1-2.4c-0.1-5.2-0.2-10.4-0.4-15.6c-0.2-6-0.6-12-0.9-18  c0-0.3,0-0.5,0.1-0.8c3.1-1.7,5.2-2.3,7.8-2.4c0.3,19.9,0.5,39.7,0.9,59.6c0.4,19.8,1,39.6,1.4,59.7c-1.4,0.2-2.8,0.3-4.3,0.5  c-0.8,0.1-1.6,0.3-2.3,0.6c-1.6,0.9-1.8,1.9-0.9,3.6c1.3,2.5,3.6,4,5.6,5.8c0.6,0.5,1.3,1,2.2,1.7c-2.7,1.5-5.1,2.9-7.6,4.3  c-0.3,0.2-0.7,0.3-1,0.5c-1.7,1-2.2,1.8-2,3.2c0.3,1.5,1.5,1.7,2.7,1.8c3,0.4,6.1,0.7,9.1,1c2.8,0.3,5.5,0.5,8.6,0.8  c0.1,2.6,0.3,5.1,0.3,7.6c-0.1,8.8-0.2,17.7-0.3,26.5c0,4.8,0,9.5,0.1,14.3c0,0.5,0,0.9,0.1,1.4c0.2,1,0.9,1.6,1.9,1.4  c0.9-0.1,1.3-0.8,1.3-1.8c0-2,0-3.9,0-5.9c0-5.6,0.1-11.2,0.1-16.8c0-6.8,0-13.7,0-20.5c0-1.9,0-3.8,0-5.8c2.2-0.5,4.2,0.1,6.4,0.3  C151.9,430.9,152,432.5,151.9,434.1z M152.4,414.3c-0.1,3.2-0.2,6.4-0.3,9.7c0,0.5-0.2,1-0.4,1.8c-8-0.6-15.9-1.1-23.8-1.7  c-0.1-0.2-0.1-0.4-0.2-0.6c1.2-0.8,2.4-1.5,3.6-2.3c1-0.6,2.1-1.1,3-1.8c2.1-1.5,2.1-3.2,0.1-4.8c-2.1-1.8-4.2-3.6-6.3-5.3  c0.1-0.3,0.1-0.5,0.2-0.8c2.2-0.1,4.4-0.2,6.6-0.3c4.8-0.3,9.5-0.6,14.3-0.8c0.5,0,0.9-0.1,1.4-0.1c1.5,0,1.9,0.4,1.9,2  C152.6,410.9,152.5,412.6,152.4,414.3z M133.1,284.5c2.9-0.3,5.6-0.6,8.8-0.9c-0.6,40.5-1.2,80.7-1.8,121.1c-1.7,0-3.1,0-4.7,0  c-0.2-4.2-0.5-8.2-0.6-12.2c-0.2-5.2-0.2-10.4-0.3-15.7c-0.1-6-0.2-12-0.4-18c-0.2-8.1-0.6-16.2-0.8-24.3  c-0.1-6.3-0.1-12.6-0.2-18.9c0-7.1,0-14.3,0-21.4C133.1,291.1,133.1,287.9,133.1,284.5z M152.8,391.9c0,3.9,0,7.7,0,11.9  c-3.4,0.3-6.3,0.5-9.5,0.7c0-2.2,0-4.1,0-6c0-4.2,0.1-8.5,0.2-12.7c0.1-5.3,0.3-10.6,0.4-15.9c0.2-9.2,0.5-18.4,0.6-27.6  c0.1-5.1,0-10.3,0-15.4c0-7.7-0.1-15.5,0-23.2c0.1-5.1,0.4-10.2,0.5-15.4c0-1.5,0-3,0-4.8c2-0.1,3.8-0.2,5.4-0.2c0,4.1-0.1,8,0,11.8  c0.2,6.5,0.7,12.9,0.9,19.4c0.2,5.3,0.4,10.6,0.5,15.9c0.2,6.6,0.6,13.1,0.8,19.7c0.1,3,0,5.9,0,8.9c0,4.2,0.2,8.4,0.1,12.7  C152.9,378.4,152.8,385.2,152.8,391.9z M164.3,418.3c-0.2,5.8-0.6,11.5-0.9,17.3c-0.4,7.3-0.8,14.6-1.2,21.8  c-0.3,6-0.4,12.1-0.5,18.1c-0.1,3.6,0,7.2,0,10.8c0,1-0.2,1.9-0.3,3.1c-2.1,0.5-4.2,1-6.4,1.5c-1.2-4.6-0.7-8.9-0.2-13.2  c0.7-6.5,1.2-13.1,1.6-19.7c0.5-6.3,0.9-12.6,1.2-18.9c0.1-2.3,0.1-4.7,0.2-7c0.1-1.3,0.3-2.6,0.5-3.9c0.1-0.4,0.3-1,0.2-1.3  c-1.2-2.6-0.6-5.3-0.6-8c-0.2-6.5,0-13-0.1-19.5c0-3.9-0.3-7.7-0.4-11.6c-0.1-5.2-0.1-10.4-0.1-15.6c-0.1-6.6-0.2-13.1-0.3-19.7  c-0.1-6.6-0.1-13.2-0.2-19.7c-0.1-6-0.4-12-0.6-18.1c-0.2-6.1-0.4-12.3-0.5-18.4c-0.1-3.1,0.1-6.3,0.1-9.5c0-0.7-0.3-1.4-0.4-2.1  c2.7-1.5,5.3-0.5,7.8,0.4c1.7,0.6,2,2.3,2.3,3.8c0.8,3.8,1.5,7.6,1.9,11.4c0.4,4,0.5,8,0.7,12.1c0.2,4.5,0.3,9,0.3,13.5  c-0.1,6.1-0.3,12.3-0.6,18.4c-0.3,6-0.8,12.1-1.1,18.1c-0.4,7.4-0.7,14.7-1.1,22.1c-0.3,6.1-0.6,12.2-0.8,18.3  C164.5,408,164.6,413.1,164.3,418.3z M176.3,318.4c-0.9,7.1-1.4,14.3-1.5,21.5c-0.1,8.5-0.3,17.1-0.4,25.6c0,4.9,0.2,9.9,0.2,14.8  c0,2.7-0.1,5.4-0.1,8.1c0,4.8,0,9.5,0,14.3c0,4.9-0.1,9.9-0.1,14.8c-0.1,5.1-0.1,10.3-0.3,15.4c-0.2,5.3-0.5,10.6-0.7,15.9  c-0.1,3.9-0.2,7.7-0.3,11.6c-0.1,2.8-0.2,5.6-0.2,8.3c0,3.7,0,7.4,0.4,11.1c0.2,2.3-0.1,4.3-1.1,6.2c-0.7,1.3-1.4,2.7-2.2,4.2  c-4.9-1.9-5-1.9-4.9-6.6c0.1-7.4,0.2-14.8,0.5-22.2c0.2-6.8,0.6-13.6,0.9-20.5c0.3-6.7,0.8-13.5,1.1-20.2c0.2-4.9,0.2-9.9,0.3-14.8  c0.2-7.3,0.6-14.6,0.9-21.9c0.4-8.5,0.8-16.9,1.3-25.4c0.3-5.7,0.8-11.3,1-17c0.3-8.6,0.6-17.3,0.5-25.9c-0.1-5.7-0.8-11.5-1.1-17.2  c-0.2-3.8-1-7.5-2-11.1c-0.1-0.3,0-0.7,0-1.1c4.4,1.2,5.8,3,6.3,7.9c0.6,5.9,1.3,11.8,1.7,17.7C176.6,314.1,176.5,316.2,176.3,318.4  z M175.1,270.7c-1.3,0.4-1.6-0.7-2.3-1.3c-4.7-4.2-10.1-7-16.3-7.9c-6.9-1-13.9-1.8-21-0.9c-2.6,0.3-5.3,0.3-7.9,0.5  c-0.1-0.2-0.2-0.3-0.3-0.5c3.5-3.5,7.1-6.9,10.4-10.6c4.1-4.5,8.9-6.9,15-7.5c8.5-0.9,16.9-1.9,25.4-0.9c4.1,0.5,7.9,2.4,11.7,4.1  C185.7,254.6,180.6,262.8,175.1,270.7z M203.8,474c-2.9,1-6,0.3-9.3-0.4c0-1-0.1-2,0-2.9c1.1-9.3,0.9-18.6,0.5-27.9  c-0.1-2.9,0-5.8-0.1-8.7c0-0.9-0.1-1.8-0.4-2.6c-0.2-0.5-0.9-1.2-1.2-1.1c-0.6,0.1-1.4,0.7-1.5,1.2c-0.5,2.1-1,4.2-1.1,6.3  c-0.4,7.9-0.6,15.7-1,23.6c-0.2,3.4-0.5,6.9-0.8,10.3c-0.1,1-0.4,1.9-0.6,2.9c-2.3,0-4.4,0-6.7,0c-0.1-0.8-0.3-1.4-0.3-2  c0.2-8.6,0.5-17.3,0.7-25.9c0.2-10.9,0.4-21.8,0.5-32.7c0-6.1-0.4-12.2-0.4-18.4c0-4.7,0.2-9.4,0.3-14c0.2-11.5,0.4-23.1,0.5-34.6  c0.1-7.6,0-15.2,0.4-22.7c0.3-7.4,1.1-14.7,1.8-22.1c0.2-2.2,0.3-4.3,0.6-6.5c0.2-1.8,0.8-3.6,2-5.5c0.3,0.7,0.5,1,0.5,1.3  c0,5.1-0.1,10.2-0.1,15.4c0.1,7.2,0.3,14.4,0.5,21.6c0.1,2.9,0.3,5.8,0.4,8.6c0,0.5,0,1.2,0.3,1.6c0.4,0.4,1.1,0.8,1.6,0.8  c0.9-0.1,1.4-0.7,1.4-1.7c0-2.1,0-4.2-0.1-6.2c-0.2-4.8-0.5-9.5-0.5-14.3c-0.1-6.1-0.1-12.2-0.1-18.3c0-3.1-0.2-6.1-0.2-9.1  c0-2.5,0.1-2.6,2.6-3.3c0.8-0.2,1.6-0.3,2.6-0.5c0.2,2.9,0.5,5.7,0.6,8.4c0.1,5.8-0.1,11.5,0.2,17.3c0.4,7.5,1.1,15,1.5,22.5  c0.3,5.8,0.3,11.7,0.4,17.6c0,1.1,0,2.1,0,3.5c-2.3,0-4.7,0-7.1,0c-0.7,0-1.5,0-2.2,0.2c-3.1,0.7-4,2-3.5,5.2  c0.3,1.9,0.6,3.7,0.8,5.6c0.5,3.7,1.8,4.9,5.5,4.9c2.4,0,4.8,0,7.4,0c-0.2,3-0.5,5.7-0.6,8.3c-0.1,2.5-0.1,5,0,7.5  c0.2,4.6,0.5,9.2,0.9,13.8c0.5,7,1,14,1.4,21c0.5,7.4,0.9,14.8,1.2,22.1c0.3,6.2,0.5,12.4,0.7,18.6  C203.9,466.4,203.8,470.1,203.8,474z M208,358.5c-0.1,2,0,3.8-0.5,5.5c-0.6,2.3-2.5,3.8-4.9,3.9c-3.5,0.2-7,0.1-10.5,0.1  c-0.3,0-0.7-0.2-1.3-0.3c-0.4-2.9-0.8-5.6-1.3-8.7C195.6,358.1,201.7,358.9,208,358.5z M206.8,414.7c-0.2-6.3-0.6-12.6-0.9-18.9  c-0.4-6.7-0.8-13.5-1.3-20.2c-0.1-1.5-0.4-3-0.7-4.6c4.7-1,6.6-4.1,7-8.5c0.2-2.1,0.9-4.2-0.7-5.9c-1.1-1.2-2.4-2.1-4.1-3.5  c-0.3-6.2-0.7-13.2-1-20.1c-0.2-5.5-0.3-11-0.6-16.5c-0.4-7.4-0.9-14.7-1.3-22.1c-0.1-3,0-6.1,0-9.3c2.1,0,3.9,0,5.8,0  c0.6,4.3,1.1,8.5,1.6,12.7c0.7,5.2,1.5,10.3,2.2,15.5c0.8,5.4,1.5,10.9,2.2,16.3c0.7,5.4,1.4,10.9,2,16.4c0.4,3.7,0.7,7.3,1,11  c0.5,6.4,1,12.7,1.4,19.1c0.5,9.3,0.9,18.5,1.2,27.8c0.2,7.9,0.3,15.8,0.4,23.7c0,0.8,0,1.6,0,2.5c-4.6,1.4-8.9,2.7-13.4,4.1  c-0.2-0.8-0.5-1.4-0.5-2.1C207,426.4,207,420.6,206.8,414.7z M208.6,471.4c-0.3-6.9-0.5-13.6-0.8-20.5c4.6-1.3,9-2.5,13.7-3.8  c0.3,8.3,0.5,16.3,0.8,24.8C217.6,471.7,213.2,471.6,208.6,471.4z M216.6,445.1c-2.4,0.7-4.8,1.2-7.6,1.9c-0.5-3.2-0.9-6.1-1.3-9.3  c5.9-1.6,11.4-3.2,16.8-4.7c0.9-0.2,1.7-0.7,2.6-0.7c0.9-0.1,1.9,0.1,3.2,0.2c0,2,0.1,3.8,0,5.6c-0.1,1.7-1.6,2.5-2.9,3.3  C223.9,443.2,220.2,444.1,216.6,445.1z M234,474.5c-2.7,0.5-5.2,1-8,1.6c-0.2-1.3-0.4-2.5-0.5-3.7c-0.3-8.6-0.5-17.3-0.7-26  c2.3-1.4,4.7-2.7,7.4-4.3c0.2,2,0.4,3.9,0.5,5.9c0.4,4.5,0.7,9,1.1,13.4c0.3,3.1,0.7,6.3,0.8,9.4C234.6,472.1,234.2,473.3,234,474.5  z M240,470.5c-0.6,0-1.2-0.1-2-0.1c-0.3-1.5-0.6-2.9-0.7-4.3c-0.4-5.4-0.7-10.8-1.2-16.2c-0.6-6.8-1.3-13.6-1.9-20.4  c-0.6-6.6-1.2-13.1-1.9-19.7c-0.3-3.1-0.7-6.3-1.1-9.4c-0.4-3.8-0.7-7.7-1.1-11.5c-0.5-5.2-0.8-10.4-1.3-15.6  c-0.5-5.6-1.2-11.3-1.8-16.9c-0.6-5.6-1.3-11.3-2.1-16.9c-0.9-6.5-1.9-13-2.9-19.5c-0.9-5.4-1.8-10.8-2.8-16.2  c-1.2-5.9-2.6-11.7-4.1-18.2c2.2,0.7,4.1,1.2,5.8,2.1c0.7,0.4,1.3,1.5,1.4,2.4c1.3,6.5,2.5,13.1,3.5,19.7c1.3,7.9,2.1,15.9,3.6,23.7  c1.3,7.2,1.7,14.5,2.2,21.7c0.3,3.7,0.8,7.3,1.1,11c0.2,2.5,0.4,5,0.6,7.5c0.5,6.4,1.1,12.9,1.6,19.3c0.4,5.6,0.8,11.3,1.1,16.9  c0.4,5.5,0.7,11,1.1,16.5c0.4,5.8,0.8,11.7,1.2,17.5c0.4,6.5,0.7,13,1.2,19.4c0.1,2.2,0.5,4.5,0.8,6.7  C240.2,470.3,240.1,470.5,240,470.5z M248.1,472.5c-1.7-0.6-3-1-4.5-1.5c-0.3-3.7-0.7-7.4-1-11.1c-0.4-5.9-0.6-11.9-1-17.8  c-0.5-8.3-1.2-16.7-1.7-25c-0.6-8.7-1-17.4-1.7-26.1c-0.6-7.8-1.3-15.6-2-23.4c-0.8-9-1.5-18-2.4-26.9c-0.5-4.6-1.4-9.1-2.1-13.6  c-0.6-4-1-8.1-1.7-12.1c-1-6-2.1-12.1-3.2-18.1c-0.2-1.2-0.4-2.4-0.3-3.7c2,2.2,2.8,4.9,3.7,7.6c2.9,8.7,4.2,17.7,5.7,26.6  c0.9,5,1.2,10.2,1.7,15.3c0.7,6.4,1.4,12.9,2.1,19.3c0.5,4.9,0.9,9.9,1.3,14.8c0.5,5,1,10,1.4,15.1c0.4,4.6,0.5,9.2,0.8,13.8  c0.3,5.5,0.5,10.9,0.8,16.4c0.2,4.2,0.4,8.5,0.7,12.7c0.3,4.3,0.5,8.6,1,12.9c0.7,6.5,1.6,13.1,2.3,19.6  C248.3,468.8,248.1,470.4,248.1,472.5z M249.7,338.1c-0.5-2.8-0.9-5.5-1.4-8.4c17.6-0.1,34.8,2.2,52.2-0.9c0.3,3.6,0.5,6.9,0.8,10.5  c-1.7,0.2-3.2,0.4-4.7,0.4c-11.7-0.1-23.5-0.3-35.2-0.5c-2.7,0-5.4-0.3-8.1-0.5C252.2,338.6,251,338.3,249.7,338.1z M255.3,374.9  c-1.2-9-2.3-17.9-3.5-27.3c16.6,1.3,33.1,1.8,49.8,1c1.1,9.2,0.5,18.2,0.9,27.3c-2.8,1.2-5.8,1.1-8.6,1.3  c-5.9,0.4-11.7,0.7-17.6,0.7c-6.8,0-13.5-0.4-20.3-0.6C255.7,376.2,255.4,375.6,255.3,374.9z M299.1,473.6  c-8.3,3.1-16.4,4.2-24.8,2.7c-4.7-0.8-9.5-1.3-14.2-1.9c-0.4-0.1-0.9-0.1-1.3-0.2c0-14.7,0-29.2,0-44c14.7,1.3,29.1,0.1,43.8-2.3  C301.8,443.5,301.9,458.6,299.1,473.6z M300.8,424.6c-1.7,0.3-3.4,0.6-5.1,0.8c-12,1.4-24,1.2-36,0.7c-0.3,0-0.5-0.1-1-0.3  c0-2,0-4,0-6.3c14.6,0.3,29.1-0.1,43.9-2.9c0,2.1,0,3.9,0,5.7C302.6,423.6,302.1,424.4,300.8,424.6z M302.7,406.2  c-5.4,1.5-31.2,2.6-44.8,1.9c-0.4-7.4-0.9-14.6-1.3-22.3c15.4,0.2,30.7,0.6,46.1-1.9C303.1,391.6,302.9,399,302.7,406.2z   M303.7,264.1c-0.9-4.5-1.7-8.8-2.5-13.4c4.6,1.2,23.3,9,25.2,10.5c-0.3,0.2-0.6,0.5-0.8,0.5C318.2,261.6,311.1,262.2,303.7,264.1z   M307.8,269c3.5-0.7,7-1.5,10.6-2.1c2.5-0.4,5-0.4,7.9-0.6c0.1,3,0.3,5.8,0.4,8.9c-6.7,0.9-13.1,1.7-20,2.6  c-0.2-2.5-0.5-4.7-0.7-6.9C305.9,269.7,306.8,269.2,307.8,269z M307.1,281c6.4-0.8,12.8-1.6,19.5-2.5c0.2,8.6,0.5,17.1,0.7,25.6  c-6.7,0.6-13.2,1.1-19.7,1.7C306.6,303.4,306.2,286.8,307.1,281z M309,417.4c0-8.1,0-16.3,0-24.7c6.2-0.6,12.3-1.2,18.9-1.8  c0.3,9.2,1.1,18.3,0.7,27.6C322,418.1,315.6,417.7,309,417.4z M328.4,424.3c0,1.7,0,3.2,0,4.7c-2.4,1.3-13.3,1.7-19.4,0.7  c0-1.5,0-3.1,0-5.1C315.4,424.2,321.9,424.7,328.4,424.3z M309,389.4c-0.1-1.3-0.1-2.1-0.2-3c0.5-0.1,0.8-0.3,1.1-0.3  c4.7-0.2,9.4-0.4,14.1-0.5c1.1,0,2.3,0.3,3.4,0.6c0.2,0.1,0.3,0.5,0.8,1.4C321.6,388.2,315.4,388.8,309,389.4z M307.8,349.6  c6.4,0,12.8,0,19.3,0c0,0.9,0,1.7,0,2.9c-6.3,0.6-12.7,1.2-19.3,1.9C307.8,352.5,307.8,351.2,307.8,349.6z M307.4,343.4  c0-7.5,0-14.7,0-22.2c6.7-0.4,13.2-0.8,19.9-1.2c0,7.5,0,15.1,0,22.9C320.6,343.1,314.1,343.3,307.4,343.4z M327.3,357.8  c0,7.1,0,14.2,0,21.5c-5.9,0.2-11.9,0.4-18.6,0.6c-0.2-6.7-0.3-13.1-0.5-19.6C314.6,359.5,320.8,358.7,327.3,357.8z M327.5,316.8  c-6.7,0.4-13.1,0.8-19.8,1.1c0-1.8,0-3.3,0-5.3c6.5-0.4,13.1-0.8,20.1-1.2C327.7,313.5,327.6,315,327.5,316.8z M307.2,475.5  c0.2-2.4,0.4-4.9,0.6-7.7c6.7,2,13.3,0.9,20.4,0.3c0.2,2.7,0.3,5.1,0.4,7.4C325.8,476.4,312.2,476.4,307.2,475.5z M328.3,461.2  c-6.9,0.7-13.6,0.6-20.6-0.5c0.4-9.1,0.8-18.2,1.3-27.5c6.4,0,12.8,0,19.5,0C329.2,442.5,328.4,451.8,328.3,461.2z M305.9,241.5  c-10.6-4.5-21.1-9.1-31.8-13.2c-12.5-4.8-24.8-10-37-15.5c-20.2-9-40.4-18.1-60.6-27.2c-4.2-1.9-8.3-4-12.6-6.1  c0.5-1.7,0.9-3.4,1.4-5.1c0.8,0.2,1.5,0.4,2.2,0.6c23.2,9.9,46.1,20.3,70,28.5c6.2,2.1,12.1,5.1,18.3,7.7c-0.1,1-0.2,1.8-0.2,2.6  c0,1.6,0.9,2.3,2.5,2.1c0.3,0,0.5-0.1,0.8-0.3c2.4-1.3,4.5-0.8,6.9,0.4c4,2,8.2,3.8,12.3,5.6c1.1,0.5,2.1,1,2.6,2.2  c0.6,1.3,1.8,2,3.1,1.3c1.1-0.6,1.9-0.1,2.8,0.3c8.7,4,17.4,8.1,26,12.1c0.7,0.3,1.5,0.7,2.3,0.8c0.5,0,1.2-0.5,1.4-0.9  c0.2-0.3,0-1.2-0.3-1.4c-0.7-0.6-1.5-1-2.3-1.4c-6.9-3.3-13.9-6.6-20.9-9.8c-4.8-2.2-4.8-2.4-2.3-6.9c1.3-2.2,2.4-4.4,3.7-6.8  c1.2,0.5,2.5,0.9,3.7,1.4c4.9,2.1,9.7,4.3,14.6,6.5c0.7,0.3,1.5,0.7,2.3,0.8c0.5,0,1.3-0.5,1.5-0.9c0.2-0.4-0.1-1.2-0.4-1.6  c-0.4-0.5-1-0.7-1.6-0.9c-6.1-2.7-12.3-5.3-18.4-8c-0.8-0.3-1.6-0.9-2-1.6c-0.9-1.7-2.2-2.6-3.9-3.1c-3.5-1.1-7.1-2.4-10.7-2.9  c-14.6-2.2-27.9-8-41-14.4c-12.5-6-24.9-12.5-37.3-18.7c-7.8-3.8-15.6-7.5-23.5-11.3c-2.3-1.1-3.4-2.9-2.9-5.4  c0.5-2.6,0.5-5.4,2.5-8c3.4,1.4,6.8,2.6,10,4.2c29.1,14.6,58.2,29.1,87.2,43.8c16.2,8.2,32.3,16.7,48.5,24.9  c13.1,6.6,26.4,13,39.6,19.5c3.5,1.7,3.8,2.5,2.4,6.1c-0.1,0.3-0.3,0.6-0.6,1.2c-1.2-0.8-2.2-1.6-3.4-2.2  c-6.6-3.6-13.2-7.1-19.9-10.6c-1.3-0.7-2.6-1.4-4.2-0.8c-0.5,1-0.3,1.7,0.6,2.2c0.6,0.3,1.3,0.7,1.9,1c7.6,4.2,15.2,8.3,22.8,12.5  c0.3,0.2,0.6,0.4,1,0.8c-0.5,1.5-1.1,3-1.7,4.8c-1.1-0.4-2.1-0.7-3-1.1c-5.8-2.7-11.7-5.4-17.5-8c-4.9-2.2-9.7-4.4-14.6-6.5  c-1-0.4-2.2-1.1-3.3,0.5c5.8,3.9,12.4,5.8,18.5,8.8c6.2,3,12.4,5.9,18.9,9c-1,2.2-2,4.5-3.2,6.6c-0.9,1.5-2.4,1.8-4.1,1.2  c-3.2-1.1-6.6-2-9.7-3.4C331,252.2,318.5,246.8,305.9,241.5z M276.9,209c-1.7-2.2-3.9-2.8-6.5-1.9c-2.7,0.9-5.5,1.7-8.9,2.8  c0.6-2.9,1.1-5.1,1.6-7.4c0.3-1.4,1.3-2,2.6-1.6c7.5,2,14.9,4.1,22.4,6.2c0.1,0,0.2,0.1,0.2,0.1c2.3,1,2.4,1.4,1.2,3.7  c-1.2,2.3-2.5,4.6-3.8,6.9c-1.2,2.2-2.1,2.2-3.4,0.2c-0.8-1.2-1.3-2.6-2.1-3.8C279.3,212.4,278.2,210.6,276.9,209z M277.9,217.6  c-2-0.2-7.8-2.6-10.8-4.7c1.9-0.5,3.4-0.9,5-1.2c1.8-0.3,3.2,0.2,4,2C276.7,215,277.3,216.2,277.9,217.6z M335.7,265.4  c0.2,0,0.4-0.1,0.5,0c5.8,2.5,11.7,4.7,17.4,7.5c4.8,2.3,9.5,4.5,15.3,3.2c0.3,15.5,0.6,30.8,0.9,46.6c-12.5,0.9-24.8,2.2-37.1,2.6  C331.3,319.8,333.5,276.8,335.7,265.4z M368.6,468.1c0,0.1,0,0.2,0,0.3c-0.4,5.9-1.4,7.2-7.3,8c-7.5,1.1-15,1.8-22.6,2.7  c-2.8,0.3-3.6-0.3-3.8-3.1c-0.4-4.4-0.8-8.8-0.9-13.2c-0.2-11.5-0.2-23-0.3-34.4c0-1.8-0.2-3.6-0.3-5.4c0-1.4,0.1-2.8,0.2-4.4  c12.2,0.1,23.8,0.4,35.5-2.7c0.1,0.9,0.3,1.7,0.2,2.5C369.1,434.8,368.8,451.4,368.6,468.1z M333.5,412.7c0-2.1,0-3.8,0-6  c0.8-0.3,1.8-0.8,2.8-0.8c10.7,0.1,21.3-0.7,31.9-1.6c0.3,0,0.5,0,1,0.1c0,1.5,0,3,0,4.7C357.4,411.2,345.7,413.5,333.5,412.7z   M369.6,345.9c-0.2,12-0.4,24-0.5,36c0,3.5,0.1,7,0.1,10.6c0,1.5,0,3,0,4.8c-3,0.4-5.8,0.7-8.6,1.1c-5.4,0.8-10.7,1.2-16.2,0.9  c-3.6-0.2-7.2,0.2-11.1,0.3c-0.2-18.4-0.4-37-0.6-55.7c6.1,1,12.1,2,18.1,1.2c6-0.8,11.9-1.8,18.3-2.8  C370,343.2,369.6,344.6,369.6,345.9z M370.1,334.9c-2.2,0.3-4.2,0.5-6.3,0.8c-5,0.7-10,1.5-15,2.1c-5.4,0.7-10.8,0-16.3-0.8  c0-2,0-4,0-6c11.9,1.5,23.8-0.2,35.6-1.1c0.5,0,1.1,0,1.6-0.1c0.1,0,0.2,0.1,0.4,0.2C370.1,331.6,370.1,333.1,370.1,334.9z   M370.8,220c-1.3,2.6-2.6,5.2-3.8,7.8c-0.5,1.1-1.3,1.7-2.6,1.9c-1.2-0.8-2.5-1.6-3.8-2.4c-18.1-11.1-37-20.9-56-30.4  c-29.8-14.9-59.6-29.9-89.5-44.7c-9.4-4.7-18.7-9.4-27.5-15.3c-2.3-1.6-2.5-2.1-1.6-4.7c0.6-1.8,1.4-3.5,2.2-5.4  c1.2,0.6,2.2,1,3.1,1.5c8.9,4.3,17.9,8.6,26.8,13c9.8,4.9,19.6,9.7,29.3,14.8c21,11.2,42.6,21.1,64.6,30  c18.2,7.4,35.9,15.8,52.3,26.7c2.4,1.6,4.8,3.3,7.3,5C371.3,218.8,371.1,219.4,370.8,220z M366.2,210.4c-14.8-9.9-30.6-17.9-47-24.5  c-28.3-11.4-55.7-24.5-82.6-38.8c-9.5-5.1-19.3-9.4-29-14.1c-5.8-2.8-11.7-5.7-17.8-8.8c1.4-2.1,2.7-4,4-5.8  c60.9,30.2,121.9,59.7,182.1,91.1c-0.9,1.9-1.8,3.6-2.8,5.7C370.7,213.4,368.5,211.9,366.2,210.4z M375.7,308.7c1.7,0,3.4-0.1,5.1,0  c7,0.3,13.9,0,20.9-0.7c1.7-0.2,3.4-0.2,5.1-0.2c3.2,0.1,6.5,0.3,10.1,0.4c0.3,7.4,0.6,15,0.9,22.5c0.3,7.5,0.7,15,0.8,22.5  c0.1,7.6,0,15.1-0.1,23.1c-14.5-1.4-28.6,0.7-42.7,0.7C374.9,372.7,374.7,312.9,375.7,308.7z M418.3,453.2c-0.2,3,0,6,0,8.9  c0,3.2-0.2,6.3-0.2,9.5c0,1.8-1.3,2-2.6,2.2c-4,0.5-8.1,1.1-12.1,1.2c-8.7,0.1-17.3,0-26-0.1c-0.6,0-1.2-0.1-2-0.2  c1-13.8,1.7-27.4,1.4-40.9c-0.2-13.5-0.5-27-0.7-40.6c3.8-0.2,7.3-0.2,10.9-0.5c5.9-0.4,11.7-1,17.5-1.5c4.1-0.4,8.1-0.6,12.1,0.2  c0.5,0.1,1,0.3,1.6,0.4c0.1,0.4,0.2,0.8,0.2,1.1C419,412.9,419.4,433.1,418.3,453.2z M421.9,248.1c-0.6,0.1-1.5-0.6-2-1.1  c-3-3.2-6.1-6.4-9-9.7c-3.9-4.4-7.7-8.8-11.5-13.3c-0.7-0.8-1.2-1.8-1.9-2.7c0.6-1.2,1.2-2.3,1.9-3.7c9.6,9.8,19,19.4,28.8,29.4  C425.8,247.5,423.8,247.9,421.9,248.1z M460.9,471.6c-0.2,1.7-0.5,3.4-0.9,5.1c-0.7,2.9-1.6,3.5-4.5,3.7c-5.7,0.4-11.4,0.7-17,1.1  c-2.2,0.1-4.3,0.5-6.5,0.5c-1.2,0-2.5-0.2-3.7-0.6c-2.7-0.9-4.1-2.7-4.3-5.8c-1.2-16.5-0.5-32.9,0.4-49.3c0.5-9.7,0.9-19.3,1.3-29  c0.3-7,0.5-13.9,0.8-21.4c11.9-1.3,23.6-2.6,35.6-3.9c0.1,0.7,0.3,1.4,0.3,2c0.1,18.5,0.2,36.9,0.3,55.4c0,3.4-0.1,6.9,0,10.3  C462.8,450.4,462,461,460.9,471.6z M510.6,337.5c-2.4,1.2-2.7,1.2-4.4-0.3c-6.2-5.7-12.2-11.6-18.5-17.2  c-5.2-4.7-10.6-9.1-15.8-13.6c-0.8-0.7-2-1.2-1.9-2.7C484.5,313.8,497.6,325.5,510.6,337.5z M469.9,311.4c0.1-0.7,0.1-1.4,0.2-2.3  c12.2,8.7,21.5,20,32.6,29.5c-3.4,0.3-6.7,0.7-9.6-2c-6.8-6.5-13.6-12.9-20.6-19.2C470.6,315.7,469.5,314,469.9,311.4z M470.5,321.2  c5,5.6,10,11.1,15.5,17.2c-5.5-0.2-10.4-0.3-15.6-0.5c-0.2-5.6-0.3-11.1-0.5-16.5C470.2,321.4,470.4,321.3,470.5,321.2z   M512.3,468.7c-0.2,0.6-1,1.3-1.7,1.5c-1.5,0.5-3.2,0.8-4.8,0.9c-8.6,0.3-17.1,1.6-25.7,1.2c-1.9-0.1-3.8,0-5.7-0.2  c-1-0.1-2.1-0.5-3-1c-1-0.4-1.4-1.3-1.4-2.4c0.1-2.6,0-5.2,0.2-7.8c0.1-2.6,0.7-3.2,3.3-3c5.6,0.3,11.2,0.5,16.8,0.9  c7.1,0.5,14.2,0.6,21.3-0.6c0.5-0.1,1-0.1,1.9-0.2C513.2,461.6,513.3,465.2,512.3,468.7z M513.7,451.5c-14.3,1.9-28.4,2.2-42.6,1.6  c0-6.5,0-12.9,0-19.4c7.4,0.9,14.6,2,21.8,1.4c7.1-0.6,14.1-1.7,21.5-2.6C514.2,439,513.9,445.1,513.7,451.5z M514.7,425.8  c-6.9,3-32.5,4.5-43.4,2.5c-0.5-27.6-2-55-0.4-82.7c0.3-0.1,0.8-0.3,1.3-0.3c10-0.5,20-1.1,30-1.5c2.6-0.1,5.2,0.1,7.8,0.4  c3,0.3,3.4,0.7,3.4,3.7c0.4,14.9,0.8,29.8,1,44.7c0.2,10.2,0.1,20.4,0.2,30.6C514.7,424.1,514.7,425,514.7,425.8z M505.7,384.1  c0.1,0,0.2,0,0.3,0c0,5.8,0,11.6,0,17.4c0,2.5-0.4,3.3-1.7,3.4c-1.5,0.1-2.2-0.7-2.6-3.1c-0.3-2-0.8-4.1-0.9-6.2  c-0.4-8.9-0.6-17.9-0.9-26.8c0-1.2,0.1-2.4,0.4-3.5c0.5-2.2,1.4-2.8,3.4-2.6c1.4,0.2,1.9,0.9,2,3c0.1,2.7,0,5.4,0.1,8.1  C505.8,377.2,505.7,380.6,505.7,384.1z M456,442.4c-0.1-3.2-1.2-4.4-4.3-4.9c-5.6-1.1-11.3-1.1-17-0.4c-3.4,0.4-4.3,1.6-4.2,5.1  c0.2,4,0.4,7.9,0.7,11.9c0.1,1.9,0.6,3.7,0.9,5.6c0.4,2.6,2,4,4.4,4.5c5.7,1.2,11.4,1.8,17.2,0.5c1.2-0.3,1.8-0.9,1.9-2.2  c0.2-4.2,0.4-8.3,0.6-12.4c-0.1,0-0.1,0-0.2,0C456,447.5,456.1,444.9,456,442.4z M451.6,458.7c0,1-0.4,1.8-1.5,1.9  c-4.3,0.3-8.6,0.8-12.9-0.5c-1.1-0.3-2-0.8-2-2.2c0.1-5.5,0.1-11,0.2-16.9c3.9,0,7.3,0,10.7,0c0.9,0,1.8,0.2,2.7,0.2  c2.5,0.2,2.7,0.2,2.8,2.8C451.7,449,451.6,453.8,451.6,458.7z M390.4,401.6c0.1-1.2,1-1.8,2-1.9c3-0.4,6.1-0.7,9.1,0.3  c1.4,0.4,2,1.2,2,2.5c0,1.1-1,1.8-2.6,1.9c-0.5,0-1.1,0-1.6,0c-0.5,0-1.1,0-1.6,0c0,0.1,0,0.2,0,0.3c-1.8-0.3-3.6-0.4-5.3-0.8  C391.2,403.7,390.3,402.9,390.4,401.6z M402.6,428.7c-0.3,1.1-1,1.7-2.1,1.8c-1.6,0.2-3.2,0.4-5.1,0.6c-0.8-0.1-1.9-0.1-2.9-0.5  c-1.6-0.6-1.9-1.9-0.8-3.2c1.7-2,7.4-2.9,9.6-1.4C402.3,426.6,402.9,427.5,402.6,428.7z M401.1,417.5c-0.7,0-1.4-0.1-2.2-0.1  c0,0,0,0.1,0,0.1c-1.7-0.2-3.4-0.3-5.1-0.5c-1.7-0.2-2.5-1.1-2.5-2.3c0-1.2,0.8-2.4,2.4-2.4c2.5,0,5,0.3,7.5,0.6  c0.6,0.1,1.2,0.7,1.6,1.3C403.7,415.7,402.8,417.4,401.1,417.5z M393.2,447.1c-1.7-0.3-2.5-1.3-2.4-2.5c0.2-1.5,1.4-1.8,2.6-2  c0.6-0.1,1.3-0.1,1.7-0.2c1.6,0.2,3,0.3,4.4,0.6c1.8,0.3,2.8,1.8,2.6,3.6c-0.1,1.1-0.7,1.7-1.8,1.6  C398,447.9,395.6,447.6,393.2,447.1z M403.4,459c1,1.1,0.6,2.3-0.8,2.6c-1.4,0.3-2.9,0.3-4.8,0.4c-0.9-0.2-2.4-0.2-3.7-0.7  c-0.6-0.2-1.3-1.2-1.3-1.7c0-0.6,0.9-1.5,1.4-1.6c2.5-0.2,5-0.3,7.5-0.2C402.3,457.9,402.9,458.5,403.4,459z M389.1,367.5  c-0.1-1.4,0.8-2.3,2-2.5c3-0.7,6-1,9.1-0.2c1.6,0.4,2.3,1.7,2.1,3.3c-0.2,1.5-1.4,1.7-2.6,1.8c-1.3,0.1-2.5,0-4.2,0  c-1.1-0.1-2.6-0.1-4.1-0.3C390.2,369.3,389.2,368.8,389.1,367.5z M390.8,344.8c-0.1-1.3,0.7-2.2,1.8-2.3c2.5-0.3,5-0.3,7.5-0.3  c0.3,0,0.7,0.3,1,0.4c1.1,0.5,1.6,1.4,1.5,2.6c-0.2,1.2-1.1,1.6-2.1,1.7c-1.2,0.1-2.5,0.2-3.8,0.3c0,0,0,0.1,0,0.1  c-1.2-0.1-2.5-0.2-3.7-0.4C391.8,346.7,390.9,346,390.8,344.8z M391.6,332.7c-0.1-1.4,0.9-2.1,2.1-2.4c1-0.3,2.1-0.3,2.9-0.4  c1.3,0.1,2.3,0.1,3.3,0.3c1,0.2,1.8,0.8,1.7,1.8c0,0.8-0.4,1.8-0.9,2.3c-0.6,0.6-1.6,0.9-2.4,1c-1.4,0.1-2.9-0.1-4.3-0.3  C392.6,334.8,391.6,334.1,391.6,332.7z M393.2,317.8c0.6-0.5,1.4-1,2.1-1.1c1.9-0.2,3.8-0.2,5.6,0c0.6,0.1,1.6,0.8,1.7,1.4  c0.1,0.7-0.2,1.9-0.8,2.3c-1,0.8-2.4,1.1-3.3,1.5c-1.8-0.4-3.4-0.6-4.8-1.1C392.2,320.2,392,318.8,393.2,317.8z M400.5,355.2  c0.4,1.3,0,2.2-1.3,2.4c-1,0.2-2.1,0.2-3.2,0.3c-1-0.1-2.2,0-3.2-0.4c-0.7-0.3-1.6-1.1-1.7-1.7c-0.1-0.7,0.5-1.7,1.1-2.2  c0.6-0.5,1.7-0.6,2.5-0.7c1.2,0,2.3,0.2,3.5,0.3C399.5,353.4,400.2,354.1,400.5,355.2z M449.8,285.8c-0.9-2.1-1.9-4.1-3-6.1  c-1.1-1.9-2.4-2-3.7-0.2c-0.7,1-1.3,2.2-1.7,3.3c-2.7,7.4-5.3,14.8-8,22.1c-0.5,1.5-0.4,2.7,0.5,4c3.1,4.6,6,9.2,9.1,13.8  c0.4,0.6,0.7,1.2,1.2,1.8c1.5,2,3,2.1,4.3,0c3-4.9,5.8-10,8.7-15c0.5-0.8,0.6-1.9,1-3.1c-0.7-2.2-1.2-4.5-2.1-6.8  C453.9,295,451.8,290.4,449.8,285.8z M452.6,308.9c-1.7,3.5-4.3,6.4-7,10c-2.4-2.9-4.4-5.4-6.5-7.9c-1.8-2.2-2.2-4.7-1.2-7.4  c1.2-3.2,2.4-6.4,3.6-9.6c0.9-2.4,1.8-4.8,2.9-7.8c3.2,6.4,6.9,12,8.6,18.5C453.4,306.2,453.2,307.5,452.6,308.9z M344.1,434  c0.4,6.8,1,13.5,1.3,20.3c0.1,3-0.3,5.9-0.6,8.9c-0.1,0.6-0.3,1.3-0.6,1.7c-0.4,0.4-1.1,0.9-1.5,0.8c-0.6-0.1-1.2-0.7-1.5-1.3  c-0.3-0.5-0.2-1.2-0.2-1.9c0-4.8,0-9.6,0-14.4c0-4.7,0-9.4,0-14.1c0-1.1-0.2-2.5,1.5-2.7C343.4,431.3,344,432.2,344.1,434z   M271.4,451.2c0.5-1.7,1.1-3.3,3.1-3.6c2.5-0.5,4.9,0,7,1.4c2.4,1.7,2.5,4.4-0.1,5.9c-1.4,0.9-3.2,1.1-4.8,1.6  c-1.3-0.5-2.6-0.7-3.6-1.4C271.6,454.3,271,452.9,271.4,451.2z M343.1,354.8c0.3,0.8,0.3,1.8,0.3,2.7c-0.2,5.9-0.4,11.7-0.5,17.6  c0.1,0,0.1,0,0.2,0c0,6.1,0,12.1,0,18.2c0,0.4,0.1,1-0.1,1.3c-0.3,0.5-0.8,1.1-1.3,1.1c-0.5,0-1.2-0.4-1.5-0.8  c-0.3-0.4-0.3-1-0.3-1.6c-0.1-3-0.4-6-0.3-8.9c0.2-9.1,0.5-18.2,0.8-27.4c0-0.7,0-1.5,0.3-2.1c0.2-0.4,0.8-0.9,1.2-0.9  C342.2,354,343,354.4,343.1,354.8z M338.4,291.6c0-0.8-0.1-1.6,0-2.4c0.3-1.6,1.6-2,2.8-1c0.9,0.8,1.4,1.8,1.5,3.1  c0.2,5.1,0.4,10.3,0.7,15.8c0,3.5,0,7.3,0,11.1c0,1,0,2-0.4,2.9c-0.2,0.6-0.9,1.2-1.5,1.3c-0.5,0-1.4-0.5-1.6-1  c-0.5-1.1-0.7-2.4-0.9-3.7c-0.2-1.6-0.1-3.3-0.1-4.9C338.7,305.7,338.5,298.7,338.4,291.6z M277.2,371.4c-1.3-0.3-2.9-0.7-4.4-1.2  c-1.1-0.4-2.1-1.2-2.1-2.5c0-1.4,1-2.3,2.1-2.9c1.9-1,7.3,0,8.7,1.5c1.5,1.6,1,3.8-1.1,4.5C279.5,371.1,278.5,371.2,277.2,371.4z   M280.4,315.5c-3.4,3-7.5,3.2-11.8,2.4c-0.3-0.1-0.5-0.2-0.7-0.3c-1.4-0.7-2.8-1.7-2.8-3.4c0-1.7,1.6-2.5,3-3.1  c2.7-1,5.4-1.2,8.2-0.5C278.7,311.1,280.6,312.1,280.4,315.5z M283.1,401.6c-0.1,1.2-0.9,2-2,2.3c-1.5,0.4-3,0.6-4.1,0.8  c-2.5-0.5-4.7,0.1-6.6-1.5c-2-1.7-1.9-4.1,0.6-5c1.4-0.5,3-0.9,4.5-0.7c1.9,0.2,3.8,0.9,5.7,1.5  C282.4,399.3,283.2,400.2,283.1,401.6z M446.9,297.2c0.9,2.3,1.6,4.7,2.3,7c-0.4,1.2-0.5,2.3-1,3.3c-1,1.9-3,2.1-4.4,0.5  c-0.5-0.6-0.9-1.4-1.1-2.1c-0.7-2.9-0.7-5.7,0.4-8.5c0.3-0.6,1.1-1.5,1.6-1.5C445.5,296,446.6,296.6,446.9,297.2z" fill="#490A3D"/>
<path d="M82.1,579.3c-2.6-2.7-6.1-4.3-10.5-4.8c-0.6-0.1-0.9-0.2-0.9-0.4c-0.2-0.2,0-0.4,0.4-0.8c2.2-2.4,4.3-5.2,6.4-8.6  c3.8-6.2,5.8-12.4,6-18.6c0.2-3.8-0.6-7.6-2.6-11.4c-2-3.8-4.7-7-8.2-9.5c-3.5-2.5-7.3-3.8-11.2-3.9c-2.5,0-4.4,0.5-5.6,1.4  c-1.2,0.9-2,2.6-2.4,4.8c-0.1,0.2-0.1,0.4-0.1,0.6c0,0.2,0,0.4,0,0.5c-0.3,2.5-0.6,5-0.8,7.5c-0.2,2.5-0.3,5.2-0.4,8  c-0.1,2.8-0.1,5.3-0.1,7.5c0,2.2,0.1,4.9,0.2,8.1c0.1,3.1,0.2,5.7,0.3,7.5c0.1,1.9,0.2,4.6,0.5,8c0.2,3.5,0.4,5.9,0.5,7.4  c0.1,1.5,0.3,4.1,0.6,7.9c0.3,3.8,0.5,6.2,0.6,7.4c0.2,1.5,0.8,2.7,1.8,3.7c1.1,0.9,2.3,1.3,3.8,1.2c5.6-0.5,10.1-1.4,13.6-2.7  c4.7-1.8,8.1-4.8,10.1-8.8c1-2.1,1.4-4.2,1-6.4S83.7,581,82.1,579.3z M60.8,571.9c-0.2-0.1-0.3-0.4-0.4-0.9  c-0.2-2.9-0.2-4.5-0.2-4.8c-0.1-10.1-0.1-16.1,0-18.3c0.2-8.6,0.5-14.4,0.9-17.3c0.2-0.7,0.6-1,1.3-0.9c2.4,0.3,4.6,1.5,6.7,3.4  c4.1,3.5,6.2,7.9,6.2,13.2c-0.1,3.7-1.6,8.2-4.6,13.7c-1.8,3.5-4.9,7.3-9.2,11.5C61.2,571.8,60.9,572,60.8,571.9z M76.3,588.4  c-1,1.7-2.6,3.1-4.7,4c-1.8,0.7-4.5,1.4-8.1,2c-0.7,0.2-1.1-0.2-1.2-0.9c-0.2-1.7-0.4-4.4-0.8-8.4c-0.1-0.8,0.3-1.3,1.1-1.5  c2.6-0.9,4.8-1.3,6.5-1.2c2.7,0,4.8,0.6,6.5,1.8C77.1,585.3,77.3,586.7,76.3,588.4z M121.2,537.2c-1.7-4.8-4-8.4-6.7-10.7  c-2.2-1.8-4.6-2.7-7.1-2.8c-2.5,0-4.9,0.8-7.1,2.7c-2.7,2.1-4.9,5.3-6.7,9.4c-3.2,7.7-4.9,16.9-4.9,27.6c0.1,3.2,0.2,5.5,0.2,6.8  c0.5,5.9,1.5,11.2,3.1,15.8c1.7,5.1,4,8.9,6.8,11.4c3.9,3.5,8.1,4.1,12.6,1.6c2-1.1,3.9-2.9,5.7-5.4c2.5-3.8,4.4-8.5,5.8-14.1  c2-8.5,2.5-17.4,1.6-26.8C124.1,547,123,541.8,121.2,537.2z M112.9,584.6c-1.1,2.8-2.4,5-3.9,6.5c-1.9,1.8-3.7,1.7-5.5-0.2  c-1.7-2-3.2-5-4.4-8.7c-2-6.8-2.8-14.1-2.5-21.9c0.4-7.3,1.6-13.7,3.5-19.2c1.3-3.2,2.6-5.7,4.1-7.3c1.2-1.3,2.2-2,3.1-1.9  c0.9,0,1.9,0.7,3,1.9c1.3,1.5,2.4,3.5,3.3,6c1.5,4,2.5,8.7,3.1,14.1c0,0.1,0.1,2.5,0.2,7.2C117,569.9,115.6,577.8,112.9,584.6z   M161.1,537.2c-1.7-4.8-4-8.4-6.7-10.7c-2.2-1.8-4.6-2.7-7.1-2.8c-2.5,0-4.9,0.8-7.1,2.7c-2.7,2.1-4.9,5.3-6.7,9.4  c-3.2,7.7-4.9,16.9-4.9,27.6c0.1,3.2,0.2,5.5,0.2,6.8c0.5,5.9,1.5,11.2,3.1,15.8c1.7,5.1,4,8.9,6.8,11.4c3.9,3.5,8.1,4.1,12.6,1.6  c2-1.1,3.9-2.9,5.7-5.4c2.5-3.8,4.4-8.5,5.8-14.1c2-8.5,2.5-17.4,1.6-26.8C163.9,547,162.8,541.8,161.1,537.2z M152.7,584.6  c-1.1,2.8-2.4,5-3.9,6.5c-1.9,1.8-3.7,1.7-5.5-0.2c-1.7-2-3.2-5-4.4-8.7c-2-6.8-2.8-14.1-2.5-21.9c0.4-7.3,1.6-13.7,3.5-19.2  c1.3-3.2,2.6-5.7,4.1-7.3c1.2-1.3,2.2-2,3.1-1.9c0.9,0,1.9,0.7,3,1.9c1.3,1.5,2.4,3.5,3.3,6c1.5,4,2.5,8.7,3.1,14.1  c0,0.1,0.1,2.5,0.2,7.2C156.8,569.9,155.4,577.8,152.7,584.6z M210.1,576.1c0.4,0.9,0.4,1.8,0.1,2.8c-0.4,1-1.1,1.8-2,2.2  c-0.9,0.4-2,0.5-3.1,0.2c-2.9-0.9-6.1-2.3-9.5-4c-2.3-1.2-8.1-4.5-17.6-10c-0.7-0.4-1.1-0.5-1.3-0.5c-0.2,0-0.2,0.4-0.1,1.2  c0,4.3,0.4,10.5,1.3,18.5c0.3,3.6,0.7,7.5,1.1,11.8c0.1,0.9-0.3,1.9-1.1,2.8c-0.8,0.9-1.7,1.4-2.7,1.5c-1,0.1-1.9-0.3-2.8-1.1  c-0.9-0.8-1.4-1.7-1.5-2.8c-1.7-16.5-2.6-38.9-2.5-67.1c0-0.3,0-0.9,0.1-1.7c0-0.8,0.1-1.4,0.1-1.9c-0.1-1.1,0.3-2.1,1.1-2.9  c0.8-0.8,1.8-1.2,2.9-1.2c1.1,0,2,0.4,2.8,1.2c0.8,0.8,1.1,1.7,1.1,2.8c-0.1,3.6-0.2,10.5-0.2,20.6c0,0.1,0,0.2,0,0.4  c0,0.2,0,0.4,0,0.6s0,0.4,0,0.6c3.5-3.8,5.3-5.9,5.5-6.1c3.5-4,6.2-7,8.1-9c0.8-0.9,1.7-1.5,2.8-1.6s2,0.2,2.9,0.9  c0.9,0.7,1.3,1.6,1.4,2.7c0.1,1.1-0.3,2.1-1.1,3c-1,1.2-3.5,4-7.4,8.4c-3,3.2-5.6,6.3-7.9,9.2c-0.6,0.8-0.6,1.4,0.2,1.9  c1,0.6,2.4,1.5,4.2,2.5c1.8,1.1,3.2,1.9,4.3,2.6c1.1,0.7,2.5,1.5,4.1,2.4c1.7,0.9,3.1,1.7,4.4,2.4c1.3,0.7,2.7,1.4,4.3,2.1  c1.6,0.7,3.1,1.3,4.6,1.9c0.5,0.2,0.9,0.5,1.4,0.7C209.1,574.5,209.8,575.2,210.1,576.1z M261.7,578.3c0.3,7.6,0.4,13.5,0.4,17.7  c0,1.3-0.4,2.3-1.1,3.1c-0.7,0.8-1.7,1.2-2.8,1.2c-1.1,0-2.1-0.5-2.9-1.4c-0.8-0.9-1.2-2-1.2-3.2c0.1-4.2,0-8.8-0.1-13.6  c-0.2-4.8-0.4-10.2-0.6-16.3c-0.3-6.1-0.5-10.6-0.5-13.5c-0.1-0.3-0.2-0.5-0.2-0.7c-0.2-0.2-0.4-0.2-0.8-0.2  c-5.2,0.1-10.3,0.2-15.4,0.5c-0.8,0.1-1.3,0.3-1.4,0.6c-0.2,0.2-0.2,0.4-0.2,0.8c-0.2,5.3-0.3,10.1-0.4,14.6c0,10.7,0.5,20.4,1.4,29  c0.2,1,0.2,1.8,0.1,2.4c-0.2,0.9-0.7,1.8-1.5,2.4c-0.8,0.7-1.7,1-2.7,0.9c-0.9-0.1-1.8-0.5-2.5-1.2c-0.7-0.7-1.2-1.6-1.2-2.6  c-1.7-21.5-1.6-45.2,0.2-70.9c0.1-1.1,0.5-2,1.4-2.8c0.9-0.8,1.8-1.1,2.9-1.1c1,0.1,1.9,0.5,2.7,1.3c0.7,0.8,1.1,1.8,1,2.9  c0,1.1-0.1,2.6-0.3,4.6c-0.2,2-0.3,3.1-0.3,3.5c-0.1,0.9-0.2,3-0.5,6.5c0,0.7,0.3,1.1,0.9,1.1c3.8,0,9-0.2,15.7-0.5  c0.7,0,1.1-0.5,1.1-1.4c0-1.5,0-3.7,0.1-6.5c0.1-2.9,0.1-4.5,0.1-5c0-1.2,0.3-2.1,1-2.9c0.7-0.7,1.5-1.2,2.7-1.2  c1.1,0,2.1,0.4,2.9,1.1c0.8,0.7,1.2,1.7,1.2,2.8c0.1,2.2,0.2,7.2,0.2,15c0.1,7.8,0.2,13.8,0.2,18.1  C261.2,565.6,261.4,570.6,261.7,578.3z M298.1,537.2c-1.7-4.8-4-8.4-6.7-10.7c-2.2-1.8-4.6-2.7-7.1-2.8c-2.5,0-4.9,0.8-7.1,2.7  c-2.7,2.1-4.9,5.3-6.7,9.4c-3.2,7.7-4.9,16.9-4.9,27.6c0.1,3.2,0.2,5.5,0.2,6.8c0.5,5.9,1.5,11.2,3.1,15.8c1.7,5.1,4,8.9,6.8,11.4  c3.9,3.5,8.1,4.1,12.6,1.6c2-1.1,3.9-2.9,5.7-5.4c2.5-3.8,4.4-8.5,5.8-14.1c2-8.5,2.5-17.4,1.6-26.8  C300.9,547,299.8,541.8,298.1,537.2z M289.8,584.6c-1.1,2.8-2.4,5-3.9,6.5c-1.9,1.8-3.7,1.7-5.5-0.2c-1.7-2-3.2-5-4.4-8.7  c-2-6.8-2.8-14.1-2.5-21.9c0.4-7.3,1.6-13.7,3.5-19.2c1.3-3.2,2.6-5.7,4.1-7.3c1.2-1.3,2.2-2,3.1-1.9c0.9,0,1.9,0.7,3,1.9  c1.3,1.5,2.4,3.5,3.3,6c1.5,4,2.5,8.7,3.1,14.1c0,0.1,0.1,2.5,0.2,7.2C293.9,569.9,292.5,577.8,289.8,584.6z M345.4,577.7  c-0.1-4.7-0.2-8.3-0.4-10.7c-0.3-7.5-0.7-13-1.2-16.6c-0.9-7.2-2-12.8-3.3-16.7c-1.1-3.2-2.4-5.9-3.9-8c-2.2-3-4.9-4.7-8.1-5  c-3.2-0.4-6.1,0.7-8.9,3.1c-2.4,2-4.7,4.9-6.7,8.6c-4.4,8-6.8,18-7.3,29.8c-0.2,5.7-0.2,10.8,0.2,15.4c0.4,4.9,1.2,10.7,2.4,17.6  c0.2,0.9,0.6,1.7,1.4,2.3c0.8,0.6,1.7,0.8,2.7,0.8c0.9-0.1,1.7-0.5,2.4-1.1c0.7-0.7,1-1.5,1.1-2.5c0.1-0.8,0.1-1.4,0-1.9  c-1.1-6-1.8-11.6-2.2-17c-0.3-4.6-0.3-10.3,0.1-17.1c0.1-0.9,0.6-1.4,1.6-1.4c3.5,0.1,6.3,0,8.2-0.1c0.9-0.1,2.8-0.1,6-0.1  c3.1,0,5.1,0,6,0c0.6,0,1,0.3,1.1,0.9c0,0.5,0.1,1.5,0.2,3c0.2,1.5,0.2,2.7,0.2,3.6c0.2,7,0.4,13.7,0.6,20c0,1.3-0.1,3.5-0.2,6.4  s-0.2,5.2-0.2,6.8c0.1,1.2,0.5,2.1,1.2,2.8s1.6,1.1,2.8,1.1c0.7,0,1.4-0.2,1.9-0.5c0.6-0.3,1.1-0.8,1.4-1.4c0.4-0.6,0.5-1.3,0.5-2.1  c0-0.9,0.1-2.7,0.2-5.4c0.1-2.7,0.1-4.9,0.1-6.4C345.5,585.1,345.5,582.4,345.4,577.7z M335.5,549.1c-0.2,0.2-0.5,0.2-0.9,0.2  c-4.8-0.1-8.9-0.1-12.3,0c-0.2,0-2.1,0.1-5.5,0.2c-0.9,0-1.3-0.1-1.4-0.2c-0.1-0.2,0-0.7,0.2-1.6c1.5-6,3.7-11.1,6.6-15.2  c1.1-1.7,2.2-2.8,3.3-3.5c1.7-1.1,3.2-0.9,4.4,0.7c1.4,1.7,2.7,4.4,3.8,8.1c0.8,2.7,1.5,6.1,2,10.4  C335.7,548.7,335.6,549,335.5,549.1z M383.4,576.4c-0.1,0-1.5-0.4-4.1-1.3c-0.6-0.2-1.8-0.5-3.5-1c-1.7-0.5-3-0.9-3.8-1.2  c-0.9-0.3-2-0.7-3.3-1.2c-1.3-0.5-2.5-1-3.6-1.5c-1.1-0.5-1.6-0.8-1.6-1c0-0.2,0.5-0.6,1.4-1.3c10-7.4,15-16.5,15.1-27.2  c0-4.2-1.3-8-3.8-11.3c-2.5-3.3-5.7-5.6-9.7-6.9c-3.9-1.3-7.9-1.5-11.9-0.6c-1.9,0.5-3.1,1.2-3.7,2.2c-0.2,0.5-0.4,1.3-0.6,2.4  c-0.9,10.1-1.4,20.2-1.4,30.3c0,13.2,0.8,26.3,2.5,39.4c0.2,2,0.7,3.5,1.5,4.2c0.7,0.6,1.6,0.9,2.7,0.9s1.9-0.4,2.7-1.1  c0.5-0.5,0.9-1.3,1.1-2.2c0.2-0.9,0.3-1.8,0.2-2.6c-0.1-0.8-0.2-1.8-0.5-3c-0.2-1.2-0.4-2-0.4-2.4c-0.5-3.8-0.9-8-1.3-12.6  c-0.1-0.9-0.1-1.4-0.1-1.6c0-0.2,0.1-0.3,0.3-0.4c0.2-0.1,0.3-0.1,0.5,0c0.2,0.1,0.4,0.2,0.7,0.4c0.3,0.2,0.5,0.3,0.5,0.4l0.8,0.5  c0.9,0.5,1.9,0.9,2.8,1.4c0.9,0.4,1.9,0.8,3,1.2c1.1,0.4,2,0.7,2.9,1.1c0.9,0.3,1.9,0.6,3.1,1s2.2,0.6,2.9,0.8  c0.8,0.2,1.8,0.5,3.1,0.8c1.3,0.4,2.3,0.6,3,0.9c1,0.3,2,0.2,2.9-0.4c0.9-0.5,1.6-1.3,1.9-2.4c0.3-1,0.2-2-0.3-2.9  C385.2,577.4,384.5,576.8,383.4,576.4z M358.5,562.6c-0.7,0.4-1.1,0.6-1.2,0.5c-0.1-0.1-0.2-0.5-0.2-1.3c0-0.4,0-2.5,0-6.2  c-0.1-2.4,0.2-9.9,0.8-22.5c0-0.2,0-0.4,0.1-0.7c0-0.3,0.1-0.5,0.1-0.6c0.2-1.1,0.3-1.7,0.5-1.9c0.2-0.2,0.8-0.3,1.8-0.4  c4.2-0.1,7.3,1.4,9.4,4.5c2.1,3.1,2.8,6.4,2.1,9.9C370.2,551.9,365.8,558.2,358.5,562.6z M418.1,535.4c-1.2-1.8-2.6-3.5-4.1-5  c-1.6-1.5-3.3-2.8-5.1-3.8c-1.8-1.1-3.9-1.9-6.1-2.4c-2.2-0.5-4.5-0.7-6.8-0.6c-1.3,0.1-2.2,0.4-2.9,0.9c-0.7,0.5-1.2,1.4-1.5,2.5  c-0.2,0.8-0.4,1.5-0.5,2c-1.3,9.4-2,18.9-2,28.8c0.1,13.9,1.5,27.4,4.4,40.5c0.5,2.3,2,3.5,4.4,3.5c1.2,0,2.4-0.4,3.5-1.2  c3.5-2.4,6.4-5,9-7.9c7.8-9.3,12.2-19.9,13.2-31.8c0.6-7.1-0.2-13.6-2.5-19.6C420.3,539.2,419.3,537.3,418.1,535.4z M407.2,583.6  c-1.5,2-3.1,4-4.7,5.8c-0.2,0.1-0.3,0.3-0.5,0.5c-0.2,0.3-0.4,0.5-0.5,0.6c-0.2,0.1-0.3,0.2-0.5,0.4c-0.2,0.1-0.4,0.2-0.5,0.2  c-0.1-0.1-0.2-0.2-0.4-0.2c-0.2-0.1-0.3-0.4-0.4-1c-0.1-0.6-0.1-1.3-0.2-2c0-0.7-0.1-1.2-0.1-1.2c-0.9-6-1.5-12-1.8-18  c-0.6-12-0.2-24,1.2-35.8c0.1-0.5,0.2-0.8,0.5-0.9c0.2-0.2,0.4-0.2,0.8,0c2.6,0.6,5,1.7,7.1,3.5c2.1,1.8,3.8,3.9,5.2,6.3  c2.4,4.4,3.5,9.7,3.4,15.8C415.6,566.8,412.7,575.5,407.2,583.6z M456.5,591c0.5,2.1-0.2,3.6-2.2,4.7c-0.5,0.3-1,0.5-1.5,0.6  c-0.6,0.1-1.2,0.1-1.9,0.2c-0.7,0-1.3,0.1-1.6,0.1c-3.6,0.4-7.6,1.2-11.9,2.5c-1.4,0.5-2.5,0.6-3.2,0.5c-2.3-0.5-3.7-1.9-4.1-4.2  c-0.9-4.2-1.5-8.6-1.9-13.4c-0.6-6.1-0.8-10.8-0.7-13.9c0.1-12.9,0.9-25,2.6-36.3c0.2-1.4,0.6-2.7,1.4-3.9c0.7-0.9,1.6-1.5,2.7-1.6  c3.1-0.3,7-0.4,11.8-0.2c1,0.1,1.9,0.5,2.6,1.3c0.7,0.8,1.1,1.7,1.1,2.8c0,1-0.4,1.9-1.1,2.6c-0.7,0.7-1.7,1.1-2.8,1.1  c-2.1,0.1-4.3,0.1-6.6,0c-0.9,0-1.5,0.5-1.5,1.4c-0.2,1.1-0.4,2.7-0.6,4.7c-0.2,2-0.4,3.3-0.5,3.8c-0.1,0.8,0,1.3,0.2,1.5  c0.2,0.2,0.7,0.3,1.6,0.1c1.3-0.2,3.3-0.3,5.8-0.4c2.5-0.1,4.4-0.2,5.5-0.3c1.3-0.2,2.3,0,3.1,0.5c1.4,0.9,2.1,2.2,2,3.7  c-0.2,1.7-1.1,2.9-2.7,3.4c-0.8,0.3-2,0.5-3.5,0.6c-3.9,0.1-7.7,0.3-11.3,0.7c-0.9,0.2-1.5,0.7-1.5,1.6c-0.2,6.5-0.3,11.6-0.2,15.3  c0.2,6.2,0.7,12.6,1.8,19.1c0.2,0.9,0.7,1.3,1.5,1.1c3-0.9,7.6-1.6,13.8-2.1C454.6,588,456,589,456.5,591z M497,578.3  c-0.5-0.9-1.3-1.5-2.3-1.9c-0.1,0-1.5-0.4-4.1-1.3c-0.6-0.2-1.8-0.5-3.5-1c-1.7-0.5-3-0.9-3.8-1.2c-0.9-0.3-2-0.7-3.3-1.2  c-1.3-0.5-2.5-1-3.6-1.5c-1.1-0.5-1.6-0.8-1.6-1c0-0.2,0.5-0.6,1.4-1.3c10-7.4,15-16.5,15.1-27.2c0-4.2-1.3-8-3.8-11.3  c-2.5-3.3-5.7-5.6-9.7-6.9c-3.9-1.3-7.9-1.5-11.9-0.6c-1.9,0.5-3.1,1.2-3.7,2.2c-0.2,0.5-0.4,1.3-0.6,2.4  c-0.9,10.1-1.4,20.2-1.4,30.3c0,13.2,0.8,26.3,2.5,39.4c0.2,2,0.7,3.5,1.5,4.2c0.7,0.6,1.6,0.9,2.7,0.9s1.9-0.4,2.7-1.1  c0.5-0.5,0.9-1.3,1.1-2.2c0.2-0.9,0.3-1.8,0.2-2.6c-0.1-0.8-0.2-1.8-0.5-3c-0.2-1.2-0.4-2-0.4-2.4c-0.5-3.8-0.9-8-1.3-12.6  c-0.1-0.9-0.1-1.4-0.1-1.6c0-0.2,0.1-0.3,0.3-0.4c0.2-0.1,0.3-0.1,0.5,0c0.2,0.1,0.4,0.2,0.7,0.4c0.3,0.2,0.5,0.3,0.5,0.4l0.8,0.5  c0.9,0.5,1.9,0.9,2.8,1.4c0.9,0.4,1.9,0.8,3,1.2c1.1,0.4,2,0.7,2.9,1.1c0.9,0.3,1.9,0.6,3.1,1s2.2,0.6,2.9,0.8  c0.8,0.2,1.8,0.5,3.1,0.8c1.3,0.4,2.3,0.6,3,0.9c1,0.3,2,0.2,2.9-0.4c0.9-0.5,1.6-1.3,1.9-2.4C497.6,580.2,497.5,579.2,497,578.3z   M469.7,562.6c-0.7,0.4-1.1,0.6-1.2,0.5c-0.1-0.1-0.2-0.5-0.2-1.3c0-0.4,0-2.5,0-6.2c-0.1-2.4,0.2-9.9,0.8-22.5c0-0.2,0-0.4,0.1-0.7  c0-0.3,0.1-0.5,0.1-0.6c0.2-1.1,0.3-1.7,0.5-1.9c0.2-0.2,0.8-0.3,1.8-0.4c4.2-0.1,7.3,1.4,9.4,4.5c2.1,3.1,2.8,6.4,2.1,9.9  C481.5,551.9,477,558.2,469.7,562.6z" fill="#490A3D"/>
</svg>